HIERARCHY
ROOT hip
{
	OFFSET 0.000000 0.000000 0.000000 
	CHANNELS 6 Xposition Yposition Zposition Xrotation Zrotation Yrotation
	JOINT abdomen
	{
		OFFSET 0.000000 3.402643 0.000000 
		CHANNELS 3 Xrotation Zrotation Yrotation
		JOINT chest
		{
			OFFSET 0.000000 8.438565 -0.680529 
			CHANNELS 3 Xrotation Zrotation Yrotation
			JOINT neck
			{
				OFFSET 0.000000 10.207942 -0.272212 
				CHANNELS 3 Xrotation Zrotation Yrotation
				JOINT head
				{
					OFFSET 0.000000 3.130431 0.000000 
					CHANNELS 3 Xrotation Zrotation Yrotation
					End Site
					{
						OFFSET 0.000000 3.130435 0.000000 
					}
				}
			}
			JOINT lCollar
			{
				OFFSET 3.470700 6.669187 -0.816635 
				CHANNELS 3 Yrotation Zrotation Xrotation
				JOINT lShldr
				{
					OFFSET 3.198488 0.000000 0.000000 
					CHANNELS 3 Zrotation Yrotation Xrotation
					JOINT lForeArm
					{
						OFFSET 10.139888 0.000000 0.000000 
						CHANNELS 3 Yrotation Zrotation Xrotation
						JOINT lHand
						{
							OFFSET 8.370511 0.000000 0.000000 
							CHANNELS 3 Zrotation Yrotation Xrotation
							End Site
							{
								OFFSET 4.083176 0.000000 0.000000 
							}
						}
					}
				}
			}
			JOINT rCollar
			{
				OFFSET -3.470700 6.669187 -0.816635 
				CHANNELS 3 Yrotation Zrotation Xrotation
				JOINT rShldr
				{
					OFFSET -3.198488 0.000000 0.000000 
					CHANNELS 3 Zrotation Yrotation Xrotation
					JOINT rForeArm
					{
						OFFSET -10.139888 0.000000 0.000000 
						CHANNELS 3 Yrotation Zrotation Xrotation
						JOINT rHand
						{
							OFFSET -8.370511 0.000000 0.000000 
							CHANNELS 3 Zrotation Yrotation Xrotation
							End Site
							{
								OFFSET -4.083176 0.000000 0.000000 
							}
						}
					}
				}
			}
		}
	}
	JOINT lThigh
	{
		OFFSET 5.308129 -1.633274 1.361059 
		CHANNELS 3 Xrotation Zrotation Yrotation
		JOINT lShin
		{
			OFFSET -2.041588 -20.007561 0.000000 
			CHANNELS 3 Xrotation Zrotation Yrotation
			JOINT lFoot
			{
				OFFSET 0.000000 -19.190928 -1.224953 
				CHANNELS 3 Xrotation Yrotation Zrotation
				End Site
				{
					OFFSET 0.000000 -2.449906 4.627600 
				}
			}
		}
	}
	JOINT rThigh
	{
		OFFSET -5.308129 -1.633274 1.361059 
		CHANNELS 3 Xrotation Zrotation Yrotation
		JOINT rShin
		{
			OFFSET 2.041588 -20.007561 0.000000 
			CHANNELS 3 Xrotation Zrotation Yrotation
			JOINT rFoot
			{
				OFFSET 0.000000 -19.190928 -1.224953 
				CHANNELS 3 Xrotation Yrotation Zrotation
				End Site
				{
					OFFSET 0.000000 -2.449906 4.627600 
				}
			}
		}
	}
}
MOTION
Frames: 13
Frame Time: 0.011111
45.810677 48.613258 -4.126266 -11.839164 -8.954266 -45.757175 47.205170 -9.610858 -7.582726 -25.976433 0.786499 -0.563827 -25.081638 11.707729 3.748999 18.042868 -23.026768 8.895650 3.134826 -1.098498 2.090950 -28.935226 -30.196119 -0.688588 -84.797592 3.134386 26.269276 8.524705 12.647240 -9.681044 -2.361975 3.467811 1.820220 53.865631 1.123519 -48.680779 58.073559 -9.097320 11.558751 -8.534408 -12.637552 85.404152 5.885683 -6.050515 8.638135 44.134712 -4.342246 -6.567369 -30.769243 -6.564338 -5.415650 -26.275234 -27.894413 -9.551497 50.924080 3.691397 7.279872 -36.588852 -14.845274 -8.350865 
46.274220 48.778835 -4.349264 -11.807324 -8.528095 -44.825264 47.285809 -10.377386 -8.022142 -25.840595 1.082128 -0.571274 -24.112888 12.325449 3.953963 17.368025 -24.425859 9.296856 3.134826 -1.098498 2.090950 -28.598253 -32.029976 0.665133 -84.750420 3.183905 26.205215 8.524705 12.647240 -11.126355 -2.361975 3.467811 1.820220 52.714626 1.384318 -46.785557 59.125546 -9.203080 12.022633 -8.534408 -12.637552 86.995956 5.483888 -6.545674 7.952029 43.178410 -4.420483 -6.456098 -29.724106 -6.177384 -5.195102 -27.037807 -27.143902 -10.070017 52.151413 3.564470 7.392035 -36.487804 -14.566996 -8.163784 
46.702347 49.015232 -4.585342 -11.413002 -8.422832 -43.961338 47.245693 -10.736518 -8.106121 -25.724306 1.331683 -0.552002 -23.932093 12.211481 4.219172 17.954149 -24.641323 9.580136 3.134826 -1.098498 2.090950 -28.510872 -33.875168 1.999257 -84.717567 3.220416 26.172226 8.524705 12.647240 -12.737683 -2.361975 3.467811 1.820220 51.699009 1.438585 -44.514801 60.488804 -9.317842 12.633782 -8.534408 -12.637552 88.538925 5.094411 -6.440007 7.355462 42.073215 -4.508109 -6.334435 -28.434887 -6.100598 -5.160114 -27.440054 -25.711060 -10.739869 53.181316 3.457004 7.494584 -36.555161 -14.088960 -7.929016 
47.113258 49.318626 -4.821103 -10.740335 -8.492428 -43.080227 47.060337 -10.765627 -8.005996 -25.695339 1.413197 -0.532262 -23.683746 12.252448 4.479431 18.425869 -25.028572 9.934419 3.134826 -1.098498 2.090950 -28.345436 -35.348740 3.613068 -84.758888 3.178378 26.225548 8.524705 12.647240 -14.056043 -2.361975 3.467811 1.820220 50.304966 2.109136 -43.496803 60.904053 -9.345764 12.822842 -8.534408 -12.637552 88.138527 4.675532 -5.943650 6.676526 40.799061 -4.615350 -6.174190 -26.977417 -6.356691 -5.295807 -27.704414 -23.876101 -11.620378 54.122913 3.359427 7.573949 -36.294308 -14.039300 -7.802974 
47.529266 49.679123 -5.045056 -10.185934 -8.388708 -41.977261 46.907448 -10.864761 -8.143109 -25.763466 1.351935 -0.545748 -23.517616 12.193792 4.725645 19.031488 -25.073254 10.234964 3.134826 -1.098498 2.090950 -28.068113 -36.792236 5.359123 -84.810562 3.119526 26.280413 8.524705 12.647240 -14.759166 -2.361975 3.467811 1.820220 49.475620 2.454251 -42.362530 61.809967 -9.397243 13.231415 -8.534408 -12.637552 87.738136 4.390054 -5.754561 5.887175 39.187508 -4.738707 -5.978578 -25.354448 -6.176082 -5.165550 -27.947701 -22.341930 -12.568646 55.033615 3.253843 7.683855 -35.127693 -14.308876 -7.400053 
47.942081 50.090984 -5.263588 -9.646629 -8.323604 -40.720951 46.795959 -10.893953 -8.385574 -25.772793 1.247429 -0.591452 -23.714666 11.877872 4.987702 19.943779 -24.556299 10.571022 3.134826 -1.098498 2.090950 -27.990030 -38.383553 7.141794 -84.839493 3.092412 26.322521 8.524705 12.647240 -15.384166 -2.361975 3.467811 1.820220 49.036091 2.543736 -40.863632 63.089775 -9.447124 13.814227 -8.534408 -12.637552 87.493996 4.284815 -5.670198 4.830289 37.265038 -4.888177 -5.760977 -23.675467 -5.557638 -4.849240 -27.946306 -20.797413 -13.582205 55.650906 3.203169 7.728393 -34.559669 -14.090734 -7.025814 
48.351070 50.546234 -5.484354 -8.979047 -8.478622 -39.341599 46.767159 -10.571465 -8.637359 -25.675140 1.283152 -0.702100 -24.534607 11.262868 5.416049 21.550608 -23.507973 11.200081 3.134826 -1.098498 2.090950 -28.307085 -39.928726 8.915256 -84.896973 3.026511 26.397802 8.524705 12.647240 -15.999402 -2.361975 3.467811 1.820220 48.313549 2.800016 -39.012924 64.304512 -9.465889 14.378557 -8.534408 -12.637552 87.269386 4.371236 -5.307258 3.396611 35.102230 -5.034683 -5.498795 -21.916065 -5.056013 -4.602962 -27.538206 -18.934628 -14.706306 55.807384 3.193349 7.745898 -33.977161 -13.667719 -6.567985 
48.756233 51.041359 -5.703844 -8.278020 -8.776690 -37.854218 46.870762 -10.072180 -8.794773 -25.577629 1.359236 -0.807860 -23.370201 12.059007 5.499269 19.915745 -25.405649 11.468781 3.134826 -1.098498 2.090950 -28.877094 -41.641407 10.563530 -84.948944 2.968017 26.462280 8.524705 12.647240 -16.302137 -2.361975 3.467811 1.820220 47.424969 3.212671 -37.304546 65.380081 -9.459431 14.876511 -8.534408 -12.637552 86.781113 4.704017 -4.703779 1.950446 32.545856 -5.200448 -5.173133 -19.881983 -4.766189 -4.486457 -26.830297 -16.868946 -15.890966 55.650906 3.203172 7.728394 -33.092415 -13.415444 -6.067090 
49.155014 51.569027 -5.921099 -7.480931 -9.306456 -36.305557 47.027950 -9.358143 -8.713098 -25.538042 1.251890 -0.881899 -23.028168 12.405717 5.549446 19.443565 -26.168911 11.618037 3.134826 -1.098498 2.090950 -29.468895 -43.402771 12.381413 -85.007759 2.902319 26.537382 8.524705 12.647240 -16.604872 -2.361975 3.467811 1.820220 46.536255 3.771345 -36.230942 66.123756 -9.440137 15.228742 -8.534408 -12.637552 85.570175 5.151456 -3.746349 0.767570 29.671827 -5.365783 -4.804336 -17.664522 -4.443287 -4.321658 -26.003550 -14.538653 -17.118601 55.318016 3.232447 7.696499 -32.263153 -13.027351 -5.540666 
49.569107 52.121578 -6.144416 -6.747399 -9.836104 -34.608971 47.301517 -8.572740 -8.787381 -25.586292 1.146708 -1.007509 -23.065557 12.612702 5.627402 19.593821 -26.403774 11.803501 3.134826 -1.098498 2.090950 -30.065325 -44.929482 14.488739 -85.077660 2.821143 26.633375 8.524705 12.647240 -17.034559 -2.361975 3.467811 1.820220 45.461224 4.466542 -35.300304 66.569984 -9.424415 15.440797 -8.534408 -12.637552 83.997902 5.730917 -2.743280 -0.063413 26.503258 -5.530519 -4.382957 -15.240162 -3.980153 -4.109067 -25.113949 -12.282089 -18.287327 54.759331 3.300857 7.645955 -30.412609 -12.762730 -4.728409 
50.026588 52.688480 -6.371881 -6.288657 -9.920725 -32.829948 47.709629 -8.147367 -9.354533 -25.635128 1.249458 -1.198961 -23.296370 12.699001 5.750649 19.763582 -26.639145 12.052660 3.134826 -1.098498 2.090950 -30.654739 -46.348446 16.700132 -85.139267 2.746145 26.719215 8.524705 12.647240 -17.141981 -2.361975 3.467811 1.820220 44.502678 5.024246 -34.131351 67.259766 -9.391753 15.769547 -8.534408 -12.637552 82.474464 6.457316 -2.292080 -0.600876 23.184246 -5.666705 -3.957196 -12.602903 -3.453599 -3.901061 -24.510923 -10.692753 -19.187025 54.152256 3.359472 7.576393 -28.869339 -11.822358 -3.757447 
50.512138 53.270069 -6.588818 -5.890170 -9.777332 -31.006166 48.126343 -7.884799 -10.037295 -25.654408 1.302921 -1.393368 -23.741886 12.954507 5.751586 20.072439 -26.991255 12.147824 3.134826 -1.098498 2.090950 -31.556871 -48.647312 18.413603 -85.039589 2.865427 26.580536 8.524705 12.647240 -17.952528 -2.361975 3.467811 1.820220 43.895870 5.268780 -32.980759 68.181557 -9.332437 16.202448 -8.534408 -12.637552 80.579933 7.206381 -2.060441 -0.867247 19.831451 -5.790541 -3.500431 -9.495483 -3.070639 -3.729873 -24.187551 -9.529924 -20.029783 53.651596 3.417892 7.543759 -26.924370 -10.688205 -2.648515 
50.962925 53.859623 -6.789485 -5.444779 -9.799200 -29.109121 48.522526 -7.499340 -10.670123 -25.771074 1.313550 -1.594529 -24.085037 13.363372 5.712669 20.563383 -27.212315 12.165714 3.134826 -1.098498 2.090950 -32.008385 -49.996693 20.915522 -85.082848 2.812740 26.634369 8.524705 12.647240 -18.186901 -2.361975 3.467811 1.820220 43.151794 5.405684 -31.765560 68.932610 -9.272587 16.569956 -8.534408 -12.637552 78.236191 8.037938 -1.540635 -0.687216 16.310760 -5.902226 -2.984274 -5.802921 -2.892363 -3.535729 -23.695448 -8.237390 -21.174408 53.191109 3.457029 7.495405 -24.514248 -9.859813 -1.630340 
